<?xml version="1.0" standalone="no"?>
<!DOCTYPE svg PUBLIC "-//W3C//DTD SVG 20010904//EN"
 "http://www.w3.org/TR/2001/REC-SVG-20010904/DTD/svg10.dtd">
<svg version="1.0" xmlns="http://www.w3.org/2000/svg"
 width="512.000000pt" height="512.000000pt" viewBox="0 0 512.000000 512.000000"
 preserveAspectRatio="xMidYMid meet">
<metadata>
Created by potrace 1.11, written by Peter Selinger 2001-2013
</metadata>
<g transform="translate(0.000000,512.000000) scale(0.100000,-0.100000)"
fill="#000000" stroke="none">
<path d="M2333 3490 l-23 -9 0 -389 c0 -217 4 -413 10 -443 34 -186 195 -352
390 -404 75 -20 242 -19 311 1 238 70 389 260 389 489 0 188 -100 350 -271
440 -91 48 -166 65 -281 65 -144 0 -241 -34 -367 -128 l-31 -23 0 195 c0 183
-1 196 -19 206 -24 12 -78 12 -108 0z m710 -448 c284 -140 284 -474 -1 -614
-63 -31 -72 -33 -177 -33 -108 0 -113 1 -187 38 -302 149 -269 513 57 630 38
13 73 17 146 14 84 -2 103 -6 162 -35z"/>
<path d="M745 3237 c-143 -48 -237 -143 -293 -298 -26 -73 -26 -79 -30 -367
-4 -339 -4 -342 72 -342 76 0 76 -1 76 301 0 300 8 351 65 434 59 85 135 124
246 125 129 0 214 -52 271 -168 l33 -66 5 -297 c6 -332 5 -329 74 -329 74 0
70 -14 77 312 5 276 6 296 28 352 27 69 88 139 146 168 26 14 66 23 116 26
140 8 231 -43 291 -166 l33 -66 5 -297 c6 -333 5 -329 75 -329 75 0 75 -2 75
311 0 305 -8 366 -60 468 -82 163 -212 241 -399 241 -153 -1 -247 -49 -337
-176 l-46 -64 -42 58 c-53 71 -102 114 -169 149 -46 24 -65 27 -162 30 -71 2
-124 -2 -150 -10z"/>
<path d="M3995 3221 c-187 -53 -336 -209 -374 -389 -16 -77 -15 -764 1 -780
16 -16 110 -16 126 0 8 8 12 61 12 170 l0 159 53 -40 c102 -78 206 -111 347
-111 163 0 281 45 393 150 163 152 203 381 101 583 -35 68 -144 174 -220 214
-33 18 -87 39 -119 48 -80 20 -242 19 -320 -4z m346 -179 c128 -61 213 -184
213 -307 0 -123 -85 -245 -213 -308 -62 -30 -72 -32 -176 -32 -138 1 -199 22
-284 101 -144 133 -152 325 -18 462 88 91 176 124 317 119 83 -3 103 -7 161
-35z"/>
</g>
</svg>
